<mxfile host="app.diagrams.net" agent="Mozilla/5.0 (Windows NT 10.0; Win64; x64) AppleWebKit/537.36 (KHTML, like Gecko) Chrome/128.0.0.0 Safari/537.36 OPR/114.0.0.0" version="25.0.3">
  <diagram name="หน้า-1" id="xHKG1W1PJYsbXhlyq4G4">
    <mxGraphModel dx="448" dy="416" grid="1" gridSize="10" guides="1" tooltips="1" connect="1" arrows="1" fold="1" page="1" pageScale="1" pageWidth="827" pageHeight="1169" math="0" shadow="0">
      <root>
        <mxCell id="0" />
        <mxCell id="1" parent="0" />
        <mxCell id="b_nM1j6cAV6Jwso214tW-3" value="" style="edgeStyle=none;curved=1;rounded=0;orthogonalLoop=1;jettySize=auto;html=1;fontSize=12;startSize=8;endSize=8;" parent="1" source="b_nM1j6cAV6Jwso214tW-1" target="b_nM1j6cAV6Jwso214tW-2" edge="1">
          <mxGeometry relative="1" as="geometry" />
        </mxCell>
        <mxCell id="b_nM1j6cAV6Jwso214tW-1" value="เริ่มต้น" style="rounded=1;whiteSpace=wrap;html=1;arcSize=50;" parent="1" vertex="1">
          <mxGeometry x="230" y="10" width="120" height="40" as="geometry" />
        </mxCell>
        <mxCell id="b_nM1j6cAV6Jwso214tW-5" value="" style="edgeStyle=none;curved=1;rounded=0;orthogonalLoop=1;jettySize=auto;html=1;fontSize=12;startSize=8;endSize=8;" parent="1" source="b_nM1j6cAV6Jwso214tW-2" target="b_nM1j6cAV6Jwso214tW-4" edge="1">
          <mxGeometry relative="1" as="geometry" />
        </mxCell>
        <mxCell id="b_nM1j6cAV6Jwso214tW-2" value="สร้าง score มารับค่าคะแนนจากผู้ใช้" style="rounded=0;whiteSpace=wrap;html=1;" parent="1" vertex="1">
          <mxGeometry x="192.5" y="100" width="195" height="40" as="geometry" />
        </mxCell>
        <mxCell id="b_nM1j6cAV6Jwso214tW-7" value="" style="edgeStyle=none;curved=1;rounded=0;orthogonalLoop=1;jettySize=auto;html=1;fontSize=12;startSize=8;endSize=8;" parent="1" source="b_nM1j6cAV6Jwso214tW-4" target="b_nM1j6cAV6Jwso214tW-6" edge="1">
          <mxGeometry relative="1" as="geometry" />
        </mxCell>
        <mxCell id="b_nM1j6cAV6Jwso214tW-4" value="รับค่า score&amp;nbsp;" style="shape=parallelogram;perimeter=parallelogramPerimeter;whiteSpace=wrap;html=1;fixedSize=1;" parent="1" vertex="1">
          <mxGeometry x="200" y="180" width="180" height="50" as="geometry" />
        </mxCell>
        <mxCell id="b_nM1j6cAV6Jwso214tW-22" value="" style="edgeStyle=none;curved=1;rounded=0;orthogonalLoop=1;jettySize=auto;html=1;fontSize=12;startSize=8;endSize=8;" parent="1" source="b_nM1j6cAV6Jwso214tW-87" target="b_nM1j6cAV6Jwso214tW-10" edge="1">
          <mxGeometry relative="1" as="geometry" />
        </mxCell>
        <mxCell id="b_nM1j6cAV6Jwso214tW-34" value="" style="edgeStyle=none;curved=1;rounded=0;orthogonalLoop=1;jettySize=auto;html=1;fontSize=12;startSize=8;endSize=8;" parent="1" edge="1">
          <mxGeometry relative="1" as="geometry">
            <mxPoint x="378.86842105263156" y="378.3421052631579" as="sourcePoint" />
            <mxPoint x="480.4296577946768" y="376.42585551330797" as="targetPoint" />
          </mxGeometry>
        </mxCell>
        <mxCell id="b_nM1j6cAV6Jwso214tW-35" value="จริง" style="edgeLabel;html=1;align=center;verticalAlign=middle;resizable=0;points=[];fontSize=12;" parent="b_nM1j6cAV6Jwso214tW-34" vertex="1" connectable="0">
          <mxGeometry x="-0.054" y="2" relative="1" as="geometry">
            <mxPoint x="-1" as="offset" />
          </mxGeometry>
        </mxCell>
        <mxCell id="b_nM1j6cAV6Jwso214tW-6" value="score &gt;= 80" style="rhombus;whiteSpace=wrap;html=1;" parent="1" vertex="1">
          <mxGeometry x="200" y="310" width="180" height="140" as="geometry" />
        </mxCell>
        <mxCell id="b_nM1j6cAV6Jwso214tW-17" value="" style="edgeStyle=none;curved=1;rounded=0;orthogonalLoop=1;jettySize=auto;html=1;fontSize=12;startSize=8;endSize=8;exitX=0.5;exitY=1;exitDx=0;exitDy=0;" parent="1" source="b_nM1j6cAV6Jwso214tW-83" target="b_nM1j6cAV6Jwso214tW-11" edge="1">
          <mxGeometry relative="1" as="geometry">
            <mxPoint x="250" y="1070" as="sourcePoint" />
          </mxGeometry>
        </mxCell>
        <mxCell id="b_nM1j6cAV6Jwso214tW-96" value="" style="edgeStyle=none;curved=1;rounded=0;orthogonalLoop=1;jettySize=auto;html=1;fontSize=12;startSize=8;endSize=8;" parent="1" source="b_nM1j6cAV6Jwso214tW-10" target="b_nM1j6cAV6Jwso214tW-38" edge="1">
          <mxGeometry relative="1" as="geometry" />
        </mxCell>
        <mxCell id="7eQ8FNlqFgEWoH0mjbUI-2" value="จริง" style="edgeLabel;html=1;align=center;verticalAlign=middle;resizable=0;points=[];" vertex="1" connectable="0" parent="b_nM1j6cAV6Jwso214tW-96">
          <mxGeometry x="-0.2" y="-2" relative="1" as="geometry">
            <mxPoint as="offset" />
          </mxGeometry>
        </mxCell>
        <mxCell id="b_nM1j6cAV6Jwso214tW-10" value="score &amp;gt;= 75&lt;div&gt;และ&lt;/div&gt;&lt;div&gt;&amp;nbsp;score &amp;lt; 80&lt;/div&gt;" style="rhombus;whiteSpace=wrap;html=1;" parent="1" vertex="1">
          <mxGeometry x="200" y="570" width="180" height="140" as="geometry" />
        </mxCell>
        <mxCell id="b_nM1j6cAV6Jwso214tW-18" value="" style="edgeStyle=none;curved=1;rounded=0;orthogonalLoop=1;jettySize=auto;html=1;fontSize=12;startSize=8;endSize=8;" parent="1" source="b_nM1j6cAV6Jwso214tW-99" target="b_nM1j6cAV6Jwso214tW-12" edge="1">
          <mxGeometry relative="1" as="geometry" />
        </mxCell>
        <mxCell id="b_nM1j6cAV6Jwso214tW-98" value="" style="edgeStyle=none;curved=1;rounded=0;orthogonalLoop=1;jettySize=auto;html=1;fontSize=12;startSize=8;endSize=8;" parent="1" source="b_nM1j6cAV6Jwso214tW-11" target="b_nM1j6cAV6Jwso214tW-41" edge="1">
          <mxGeometry relative="1" as="geometry" />
        </mxCell>
        <mxCell id="7eQ8FNlqFgEWoH0mjbUI-3" value="&#xa;&lt;span style=&quot;color: rgb(0, 0, 0); font-family: Helvetica; font-size: 11px; font-style: normal; font-variant-ligatures: normal; font-variant-caps: normal; font-weight: 400; letter-spacing: normal; orphans: 2; text-align: center; text-indent: 0px; text-transform: none; widows: 2; word-spacing: 0px; -webkit-text-stroke-width: 0px; white-space: nowrap; background-color: rgb(255, 255, 255); text-decoration-thickness: initial; text-decoration-style: initial; text-decoration-color: initial; display: inline !important; float: none;&quot;&gt;จริง&lt;/span&gt;&#xa;&#xa;" style="edgeLabel;html=1;align=center;verticalAlign=middle;resizable=0;points=[];" vertex="1" connectable="0" parent="b_nM1j6cAV6Jwso214tW-98">
          <mxGeometry x="-0.3" y="-3" relative="1" as="geometry">
            <mxPoint as="offset" />
          </mxGeometry>
        </mxCell>
        <mxCell id="b_nM1j6cAV6Jwso214tW-11" value="core &amp;gt;= 70&amp;nbsp;&lt;div&gt;และ&lt;/div&gt;&lt;div&gt;&amp;nbsp;score &amp;lt; 75&lt;/div&gt;" style="rhombus;whiteSpace=wrap;html=1;" parent="1" vertex="1">
          <mxGeometry x="200" y="860" width="180" height="140" as="geometry" />
        </mxCell>
        <mxCell id="b_nM1j6cAV6Jwso214tW-19" value="" style="edgeStyle=none;curved=1;rounded=0;orthogonalLoop=1;jettySize=auto;html=1;fontSize=12;startSize=8;endSize=8;" parent="1" source="b_nM1j6cAV6Jwso214tW-104" target="b_nM1j6cAV6Jwso214tW-13" edge="1">
          <mxGeometry relative="1" as="geometry" />
        </mxCell>
        <mxCell id="b_nM1j6cAV6Jwso214tW-109" value="" style="edgeStyle=none;curved=1;rounded=0;orthogonalLoop=1;jettySize=auto;html=1;fontSize=12;startSize=8;endSize=8;" parent="1" source="b_nM1j6cAV6Jwso214tW-12" target="b_nM1j6cAV6Jwso214tW-51" edge="1">
          <mxGeometry relative="1" as="geometry" />
        </mxCell>
        <mxCell id="7eQ8FNlqFgEWoH0mjbUI-4" value="&#xa;&lt;span style=&quot;color: rgb(0, 0, 0); font-family: Helvetica; font-size: 11px; font-style: normal; font-variant-ligatures: normal; font-variant-caps: normal; font-weight: 400; letter-spacing: normal; orphans: 2; text-align: center; text-indent: 0px; text-transform: none; widows: 2; word-spacing: 0px; -webkit-text-stroke-width: 0px; white-space: nowrap; background-color: rgb(255, 255, 255); text-decoration-thickness: initial; text-decoration-style: initial; text-decoration-color: initial; display: inline !important; float: none;&quot;&gt;จริง&lt;/span&gt;&#xa;&#xa;" style="edgeLabel;html=1;align=center;verticalAlign=middle;resizable=0;points=[];" vertex="1" connectable="0" parent="b_nM1j6cAV6Jwso214tW-109">
          <mxGeometry x="0.0348" relative="1" as="geometry">
            <mxPoint as="offset" />
          </mxGeometry>
        </mxCell>
        <mxCell id="b_nM1j6cAV6Jwso214tW-12" value="score &amp;gt;= 65&amp;nbsp;&lt;div&gt;และ&lt;/div&gt;&lt;div&gt;score &amp;lt; 70&lt;/div&gt;" style="rhombus;whiteSpace=wrap;html=1;" parent="1" vertex="1">
          <mxGeometry x="200" y="1169" width="180" height="140" as="geometry" />
        </mxCell>
        <mxCell id="b_nM1j6cAV6Jwso214tW-110" value="" style="edgeStyle=none;curved=1;rounded=0;orthogonalLoop=1;jettySize=auto;html=1;fontSize=12;startSize=8;endSize=8;" parent="1" source="b_nM1j6cAV6Jwso214tW-13" target="b_nM1j6cAV6Jwso214tW-55" edge="1">
          <mxGeometry relative="1" as="geometry" />
        </mxCell>
        <mxCell id="7eQ8FNlqFgEWoH0mjbUI-5" value="จริง" style="edgeLabel;html=1;align=center;verticalAlign=middle;resizable=0;points=[];" vertex="1" connectable="0" parent="b_nM1j6cAV6Jwso214tW-110">
          <mxGeometry x="-0.0522" relative="1" as="geometry">
            <mxPoint as="offset" />
          </mxGeometry>
        </mxCell>
        <mxCell id="b_nM1j6cAV6Jwso214tW-111" style="edgeStyle=none;curved=1;rounded=0;orthogonalLoop=1;jettySize=auto;html=1;exitX=0.5;exitY=1;exitDx=0;exitDy=0;entryX=0.5;entryY=0;entryDx=0;entryDy=0;fontSize=12;startSize=8;endSize=8;" parent="1" source="b_nM1j6cAV6Jwso214tW-112" target="b_nM1j6cAV6Jwso214tW-14" edge="1">
          <mxGeometry relative="1" as="geometry" />
        </mxCell>
        <mxCell id="b_nM1j6cAV6Jwso214tW-13" value="score &amp;gt;= 60&amp;nbsp;&lt;div&gt;และ&lt;/div&gt;&lt;div&gt;score &amp;lt; 65&lt;/div&gt;" style="rhombus;whiteSpace=wrap;html=1;" parent="1" vertex="1">
          <mxGeometry x="200" y="1470" width="180" height="140" as="geometry" />
        </mxCell>
        <mxCell id="b_nM1j6cAV6Jwso214tW-114" value="" style="edgeStyle=none;curved=1;rounded=0;orthogonalLoop=1;jettySize=auto;html=1;fontSize=12;startSize=8;endSize=8;" parent="1" source="b_nM1j6cAV6Jwso214tW-14" target="b_nM1j6cAV6Jwso214tW-63" edge="1">
          <mxGeometry relative="1" as="geometry" />
        </mxCell>
        <mxCell id="7eQ8FNlqFgEWoH0mjbUI-6" value="จริง" style="edgeLabel;html=1;align=center;verticalAlign=middle;resizable=0;points=[];" vertex="1" connectable="0" parent="b_nM1j6cAV6Jwso214tW-114">
          <mxGeometry x="-0.1217" y="-3" relative="1" as="geometry">
            <mxPoint as="offset" />
          </mxGeometry>
        </mxCell>
        <mxCell id="b_nM1j6cAV6Jwso214tW-116" value="" style="edgeStyle=none;curved=1;rounded=0;orthogonalLoop=1;jettySize=auto;html=1;fontSize=12;startSize=8;endSize=8;" parent="1" source="b_nM1j6cAV6Jwso214tW-118" target="b_nM1j6cAV6Jwso214tW-15" edge="1">
          <mxGeometry relative="1" as="geometry" />
        </mxCell>
        <mxCell id="b_nM1j6cAV6Jwso214tW-14" value="score &amp;gt;= 55&amp;nbsp;&lt;div&gt;และ&lt;/div&gt;&lt;div&gt;&amp;nbsp;score &amp;lt; 60&lt;/div&gt;" style="rhombus;whiteSpace=wrap;html=1;" parent="1" vertex="1">
          <mxGeometry x="200" y="1780" width="180" height="140" as="geometry" />
        </mxCell>
        <mxCell id="b_nM1j6cAV6Jwso214tW-117" value="" style="edgeStyle=none;curved=1;rounded=0;orthogonalLoop=1;jettySize=auto;html=1;fontSize=12;startSize=8;endSize=8;" parent="1" source="b_nM1j6cAV6Jwso214tW-120" target="b_nM1j6cAV6Jwso214tW-16" edge="1">
          <mxGeometry relative="1" as="geometry" />
        </mxCell>
        <mxCell id="b_nM1j6cAV6Jwso214tW-122" value="" style="edgeStyle=none;curved=1;rounded=0;orthogonalLoop=1;jettySize=auto;html=1;fontSize=12;startSize=8;endSize=8;" parent="1" source="b_nM1j6cAV6Jwso214tW-15" target="b_nM1j6cAV6Jwso214tW-68" edge="1">
          <mxGeometry relative="1" as="geometry" />
        </mxCell>
        <mxCell id="7eQ8FNlqFgEWoH0mjbUI-7" value="จริง" style="edgeLabel;html=1;align=center;verticalAlign=middle;resizable=0;points=[];" vertex="1" connectable="0" parent="b_nM1j6cAV6Jwso214tW-122">
          <mxGeometry x="0.087" y="2" relative="1" as="geometry">
            <mxPoint as="offset" />
          </mxGeometry>
        </mxCell>
        <mxCell id="b_nM1j6cAV6Jwso214tW-15" value="score &amp;gt;= 50&amp;nbsp;&lt;div&gt;และ&lt;/div&gt;&lt;div&gt;&amp;nbsp;score &amp;lt; 55&lt;/div&gt;" style="rhombus;whiteSpace=wrap;html=1;" parent="1" vertex="1">
          <mxGeometry x="200" y="2045" width="180" height="140" as="geometry" />
        </mxCell>
        <mxCell id="b_nM1j6cAV6Jwso214tW-32" value="" style="edgeStyle=none;curved=1;rounded=0;orthogonalLoop=1;jettySize=auto;html=1;fontSize=12;startSize=8;endSize=8;exitX=0.5;exitY=1;exitDx=0;exitDy=0;" parent="1" source="b_nM1j6cAV6Jwso214tW-127" target="b_nM1j6cAV6Jwso214tW-31" edge="1">
          <mxGeometry relative="1" as="geometry">
            <mxPoint x="290" y="2530" as="sourcePoint" />
          </mxGeometry>
        </mxCell>
        <mxCell id="b_nM1j6cAV6Jwso214tW-123" value="" style="edgeStyle=none;curved=1;rounded=0;orthogonalLoop=1;jettySize=auto;html=1;fontSize=12;startSize=8;endSize=8;" parent="1" source="b_nM1j6cAV6Jwso214tW-16" target="b_nM1j6cAV6Jwso214tW-73" edge="1">
          <mxGeometry relative="1" as="geometry" />
        </mxCell>
        <mxCell id="7eQ8FNlqFgEWoH0mjbUI-8" value="จริง" style="edgeLabel;html=1;align=center;verticalAlign=middle;resizable=0;points=[];" vertex="1" connectable="0" parent="b_nM1j6cAV6Jwso214tW-123">
          <mxGeometry x="-0.0348" relative="1" as="geometry">
            <mxPoint as="offset" />
          </mxGeometry>
        </mxCell>
        <mxCell id="b_nM1j6cAV6Jwso214tW-16" value="score &lt; 50" style="rhombus;whiteSpace=wrap;html=1;" parent="1" vertex="1">
          <mxGeometry x="200" y="2300" width="180" height="140" as="geometry" />
        </mxCell>
        <mxCell id="b_nM1j6cAV6Jwso214tW-31" value="จบ" style="rounded=1;whiteSpace=wrap;html=1;arcSize=50;" parent="1" vertex="1">
          <mxGeometry x="230" y="2580" width="120" height="40" as="geometry" />
        </mxCell>
        <mxCell id="b_nM1j6cAV6Jwso214tW-91" style="edgeStyle=orthogonalEdgeStyle;rounded=0;orthogonalLoop=1;jettySize=auto;html=1;exitX=0.5;exitY=1;exitDx=0;exitDy=0;entryX=1;entryY=0.5;entryDx=0;entryDy=0;fontSize=12;startSize=8;endSize=8;" parent="1" source="b_nM1j6cAV6Jwso214tW-33" target="b_nM1j6cAV6Jwso214tW-87" edge="1">
          <mxGeometry relative="1" as="geometry" />
        </mxCell>
        <mxCell id="b_nM1j6cAV6Jwso214tW-33" value="แสดง A !" style="shape=parallelogram;perimeter=parallelogramPerimeter;whiteSpace=wrap;html=1;fixedSize=1;" parent="1" vertex="1">
          <mxGeometry x="470" y="350" width="170" height="50" as="geometry" />
        </mxCell>
        <mxCell id="b_nM1j6cAV6Jwso214tW-97" style="edgeStyle=orthogonalEdgeStyle;rounded=0;orthogonalLoop=1;jettySize=auto;html=1;exitX=0.5;exitY=1;exitDx=0;exitDy=0;entryX=1;entryY=0.5;entryDx=0;entryDy=0;fontSize=12;startSize=8;endSize=8;" parent="1" source="b_nM1j6cAV6Jwso214tW-38" target="b_nM1j6cAV6Jwso214tW-83" edge="1">
          <mxGeometry relative="1" as="geometry" />
        </mxCell>
        <mxCell id="b_nM1j6cAV6Jwso214tW-38" value="แสดง B+ !" style="shape=parallelogram;perimeter=parallelogramPerimeter;whiteSpace=wrap;html=1;fixedSize=1;" parent="1" vertex="1">
          <mxGeometry x="470" y="615" width="170" height="50" as="geometry" />
        </mxCell>
        <mxCell id="b_nM1j6cAV6Jwso214tW-102" style="edgeStyle=orthogonalEdgeStyle;rounded=0;orthogonalLoop=1;jettySize=auto;html=1;exitX=0.5;exitY=1;exitDx=0;exitDy=0;entryX=1;entryY=0.5;entryDx=0;entryDy=0;fontSize=12;startSize=8;endSize=8;" parent="1" source="b_nM1j6cAV6Jwso214tW-41" target="b_nM1j6cAV6Jwso214tW-99" edge="1">
          <mxGeometry relative="1" as="geometry" />
        </mxCell>
        <mxCell id="b_nM1j6cAV6Jwso214tW-41" value="แสดง B !" style="shape=parallelogram;perimeter=parallelogramPerimeter;whiteSpace=wrap;html=1;fixedSize=1;" parent="1" vertex="1">
          <mxGeometry x="470" y="905" width="170" height="50" as="geometry" />
        </mxCell>
        <mxCell id="b_nM1j6cAV6Jwso214tW-108" style="edgeStyle=orthogonalEdgeStyle;rounded=0;orthogonalLoop=1;jettySize=auto;html=1;exitX=0.5;exitY=1;exitDx=0;exitDy=0;entryX=1;entryY=0.5;entryDx=0;entryDy=0;fontSize=12;startSize=8;endSize=8;" parent="1" source="b_nM1j6cAV6Jwso214tW-51" target="b_nM1j6cAV6Jwso214tW-104" edge="1">
          <mxGeometry relative="1" as="geometry" />
        </mxCell>
        <mxCell id="b_nM1j6cAV6Jwso214tW-51" value="แสดง C+ !" style="shape=parallelogram;perimeter=parallelogramPerimeter;whiteSpace=wrap;html=1;fixedSize=1;" parent="1" vertex="1">
          <mxGeometry x="470" y="1214" width="170" height="50" as="geometry" />
        </mxCell>
        <mxCell id="b_nM1j6cAV6Jwso214tW-115" style="edgeStyle=orthogonalEdgeStyle;rounded=0;orthogonalLoop=1;jettySize=auto;html=1;exitX=0.5;exitY=1;exitDx=0;exitDy=0;entryX=1;entryY=0.5;entryDx=0;entryDy=0;fontSize=12;startSize=8;endSize=8;" parent="1" source="b_nM1j6cAV6Jwso214tW-55" target="b_nM1j6cAV6Jwso214tW-112" edge="1">
          <mxGeometry relative="1" as="geometry" />
        </mxCell>
        <mxCell id="b_nM1j6cAV6Jwso214tW-55" value="แสดง C !" style="shape=parallelogram;perimeter=parallelogramPerimeter;whiteSpace=wrap;html=1;fixedSize=1;" parent="1" vertex="1">
          <mxGeometry x="470" y="1515" width="170" height="50" as="geometry" />
        </mxCell>
        <mxCell id="b_nM1j6cAV6Jwso214tW-125" style="edgeStyle=orthogonalEdgeStyle;rounded=0;orthogonalLoop=1;jettySize=auto;html=1;entryX=1;entryY=0.5;entryDx=0;entryDy=0;fontSize=12;startSize=8;endSize=8;exitX=0.5;exitY=1;exitDx=0;exitDy=0;" parent="1" source="b_nM1j6cAV6Jwso214tW-63" target="b_nM1j6cAV6Jwso214tW-118" edge="1">
          <mxGeometry relative="1" as="geometry">
            <Array as="points">
              <mxPoint x="555" y="1995" />
            </Array>
          </mxGeometry>
        </mxCell>
        <mxCell id="b_nM1j6cAV6Jwso214tW-63" value="แสดง D+ !" style="shape=parallelogram;perimeter=parallelogramPerimeter;whiteSpace=wrap;html=1;fixedSize=1;" parent="1" vertex="1">
          <mxGeometry x="470" y="1825" width="170" height="50" as="geometry" />
        </mxCell>
        <mxCell id="b_nM1j6cAV6Jwso214tW-124" style="edgeStyle=orthogonalEdgeStyle;rounded=0;orthogonalLoop=1;jettySize=auto;html=1;exitX=0.5;exitY=1;exitDx=0;exitDy=0;entryX=1;entryY=0.5;entryDx=0;entryDy=0;fontSize=12;startSize=8;endSize=8;" parent="1" source="b_nM1j6cAV6Jwso214tW-68" target="b_nM1j6cAV6Jwso214tW-120" edge="1">
          <mxGeometry relative="1" as="geometry" />
        </mxCell>
        <mxCell id="b_nM1j6cAV6Jwso214tW-68" value="แสดง D !" style="shape=parallelogram;perimeter=parallelogramPerimeter;whiteSpace=wrap;html=1;fixedSize=1;" parent="1" vertex="1">
          <mxGeometry x="470" y="2090" width="170" height="50" as="geometry" />
        </mxCell>
        <mxCell id="b_nM1j6cAV6Jwso214tW-129" style="edgeStyle=orthogonalEdgeStyle;rounded=0;orthogonalLoop=1;jettySize=auto;html=1;exitX=0.5;exitY=1;exitDx=0;exitDy=0;entryX=1;entryY=0.5;entryDx=0;entryDy=0;fontSize=12;startSize=8;endSize=8;" parent="1" source="b_nM1j6cAV6Jwso214tW-73" target="b_nM1j6cAV6Jwso214tW-127" edge="1">
          <mxGeometry relative="1" as="geometry" />
        </mxCell>
        <mxCell id="b_nM1j6cAV6Jwso214tW-73" value="แสดง F !" style="shape=parallelogram;perimeter=parallelogramPerimeter;whiteSpace=wrap;html=1;fixedSize=1;" parent="1" vertex="1">
          <mxGeometry x="470" y="2345" width="170" height="50" as="geometry" />
        </mxCell>
        <mxCell id="b_nM1j6cAV6Jwso214tW-84" value="" style="edgeStyle=none;curved=1;rounded=0;orthogonalLoop=1;jettySize=auto;html=1;fontSize=12;startSize=8;endSize=8;exitX=0.5;exitY=1;exitDx=0;exitDy=0;" parent="1" source="b_nM1j6cAV6Jwso214tW-10" target="b_nM1j6cAV6Jwso214tW-83" edge="1">
          <mxGeometry relative="1" as="geometry">
            <mxPoint x="290" y="710" as="sourcePoint" />
            <mxPoint x="256" y="1114" as="targetPoint" />
          </mxGeometry>
        </mxCell>
        <mxCell id="b_nM1j6cAV6Jwso214tW-85" value="เท็จ" style="edgeLabel;html=1;align=center;verticalAlign=middle;resizable=0;points=[];fontSize=12;" parent="b_nM1j6cAV6Jwso214tW-84" vertex="1" connectable="0">
          <mxGeometry x="-0.1007" y="-2" relative="1" as="geometry">
            <mxPoint x="6" y="-1" as="offset" />
          </mxGeometry>
        </mxCell>
        <mxCell id="b_nM1j6cAV6Jwso214tW-83" value="" style="ellipse;whiteSpace=wrap;html=1;aspect=fixed;" parent="1" vertex="1">
          <mxGeometry x="275" y="771" width="30" height="30" as="geometry" />
        </mxCell>
        <mxCell id="b_nM1j6cAV6Jwso214tW-88" value="" style="edgeStyle=none;curved=1;rounded=0;orthogonalLoop=1;jettySize=auto;html=1;fontSize=12;startSize=8;endSize=8;" parent="1" source="b_nM1j6cAV6Jwso214tW-6" target="b_nM1j6cAV6Jwso214tW-87" edge="1">
          <mxGeometry relative="1" as="geometry">
            <mxPoint x="290" y="450" as="sourcePoint" />
            <mxPoint x="290" y="570" as="targetPoint" />
          </mxGeometry>
        </mxCell>
        <mxCell id="b_nM1j6cAV6Jwso214tW-89" value="เท็จ" style="edgeLabel;html=1;align=center;verticalAlign=middle;resizable=0;points=[];fontSize=12;" parent="b_nM1j6cAV6Jwso214tW-88" vertex="1" connectable="0">
          <mxGeometry x="-0.0533" y="-2" relative="1" as="geometry">
            <mxPoint as="offset" />
          </mxGeometry>
        </mxCell>
        <mxCell id="b_nM1j6cAV6Jwso214tW-87" value="" style="ellipse;whiteSpace=wrap;html=1;aspect=fixed;" parent="1" vertex="1">
          <mxGeometry x="275" y="510" width="30" height="30" as="geometry" />
        </mxCell>
        <mxCell id="b_nM1j6cAV6Jwso214tW-100" value="" style="edgeStyle=none;curved=1;rounded=0;orthogonalLoop=1;jettySize=auto;html=1;fontSize=12;startSize=8;endSize=8;" parent="1" source="b_nM1j6cAV6Jwso214tW-11" target="b_nM1j6cAV6Jwso214tW-99" edge="1">
          <mxGeometry relative="1" as="geometry">
            <mxPoint x="285" y="996" as="sourcePoint" />
            <mxPoint x="255" y="1344" as="targetPoint" />
          </mxGeometry>
        </mxCell>
        <mxCell id="b_nM1j6cAV6Jwso214tW-101" value="เท็จ" style="edgeLabel;html=1;align=center;verticalAlign=middle;resizable=0;points=[];fontSize=12;" parent="b_nM1j6cAV6Jwso214tW-100" vertex="1" connectable="0">
          <mxGeometry x="-0.0563" y="-3" relative="1" as="geometry">
            <mxPoint as="offset" />
          </mxGeometry>
        </mxCell>
        <mxCell id="b_nM1j6cAV6Jwso214tW-99" value="" style="ellipse;whiteSpace=wrap;html=1;aspect=fixed;" parent="1" vertex="1">
          <mxGeometry x="275" y="1080" width="30" height="30" as="geometry" />
        </mxCell>
        <mxCell id="b_nM1j6cAV6Jwso214tW-105" value="" style="edgeStyle=none;curved=1;rounded=0;orthogonalLoop=1;jettySize=auto;html=1;fontSize=12;startSize=8;endSize=8;" parent="1" source="b_nM1j6cAV6Jwso214tW-12" target="b_nM1j6cAV6Jwso214tW-104" edge="1">
          <mxGeometry relative="1" as="geometry">
            <mxPoint x="283" y="1304" as="sourcePoint" />
            <mxPoint x="257" y="1565" as="targetPoint" />
          </mxGeometry>
        </mxCell>
        <mxCell id="b_nM1j6cAV6Jwso214tW-106" value="เท็จ" style="edgeLabel;html=1;align=center;verticalAlign=middle;resizable=0;points=[];fontSize=12;" parent="b_nM1j6cAV6Jwso214tW-105" vertex="1" connectable="0">
          <mxGeometry x="-0.055" y="2" relative="1" as="geometry">
            <mxPoint as="offset" />
          </mxGeometry>
        </mxCell>
        <mxCell id="b_nM1j6cAV6Jwso214tW-104" value="" style="ellipse;whiteSpace=wrap;html=1;aspect=fixed;" parent="1" vertex="1">
          <mxGeometry x="275" y="1380" width="30" height="30" as="geometry" />
        </mxCell>
        <mxCell id="b_nM1j6cAV6Jwso214tW-113" value="" style="edgeStyle=none;curved=1;rounded=0;orthogonalLoop=1;jettySize=auto;html=1;exitX=0.5;exitY=1;exitDx=0;exitDy=0;entryX=0.5;entryY=0;entryDx=0;entryDy=0;fontSize=12;startSize=8;endSize=8;" parent="1" source="b_nM1j6cAV6Jwso214tW-13" target="b_nM1j6cAV6Jwso214tW-112" edge="1">
          <mxGeometry relative="1" as="geometry">
            <mxPoint x="290" y="1610" as="sourcePoint" />
            <mxPoint x="290" y="1780" as="targetPoint" />
          </mxGeometry>
        </mxCell>
        <mxCell id="7eQ8FNlqFgEWoH0mjbUI-9" value="&lt;span style=&quot;font-size: 12px;&quot;&gt;เท็จ&lt;/span&gt;" style="edgeLabel;html=1;align=center;verticalAlign=middle;resizable=0;points=[];" vertex="1" connectable="0" parent="b_nM1j6cAV6Jwso214tW-113">
          <mxGeometry x="-0.1475" y="-1" relative="1" as="geometry">
            <mxPoint as="offset" />
          </mxGeometry>
        </mxCell>
        <mxCell id="b_nM1j6cAV6Jwso214tW-112" value="" style="ellipse;whiteSpace=wrap;html=1;aspect=fixed;" parent="1" vertex="1">
          <mxGeometry x="275" y="1671" width="30" height="30" as="geometry" />
        </mxCell>
        <mxCell id="b_nM1j6cAV6Jwso214tW-119" value="" style="edgeStyle=none;curved=1;rounded=0;orthogonalLoop=1;jettySize=auto;html=1;fontSize=12;startSize=8;endSize=8;" parent="1" source="b_nM1j6cAV6Jwso214tW-14" target="b_nM1j6cAV6Jwso214tW-118" edge="1">
          <mxGeometry relative="1" as="geometry">
            <mxPoint x="290" y="1920" as="sourcePoint" />
            <mxPoint x="290" y="2045" as="targetPoint" />
          </mxGeometry>
        </mxCell>
        <mxCell id="7eQ8FNlqFgEWoH0mjbUI-10" value="&lt;span style=&quot;font-size: 12px;&quot;&gt;เท็จ&lt;/span&gt;" style="edgeLabel;html=1;align=center;verticalAlign=middle;resizable=0;points=[];" vertex="1" connectable="0" parent="b_nM1j6cAV6Jwso214tW-119">
          <mxGeometry x="-0.3185" y="1" relative="1" as="geometry">
            <mxPoint as="offset" />
          </mxGeometry>
        </mxCell>
        <mxCell id="b_nM1j6cAV6Jwso214tW-118" value="" style="ellipse;whiteSpace=wrap;html=1;aspect=fixed;" parent="1" vertex="1">
          <mxGeometry x="275" y="1980" width="30" height="30" as="geometry" />
        </mxCell>
        <mxCell id="b_nM1j6cAV6Jwso214tW-121" value="" style="edgeStyle=none;curved=1;rounded=0;orthogonalLoop=1;jettySize=auto;html=1;fontSize=12;startSize=8;endSize=8;" parent="1" source="b_nM1j6cAV6Jwso214tW-15" target="b_nM1j6cAV6Jwso214tW-120" edge="1">
          <mxGeometry relative="1" as="geometry">
            <mxPoint x="290" y="2185" as="sourcePoint" />
            <mxPoint x="290" y="2300" as="targetPoint" />
          </mxGeometry>
        </mxCell>
        <mxCell id="7eQ8FNlqFgEWoH0mjbUI-11" value="&lt;span style=&quot;font-size: 12px;&quot;&gt;เท็จ&lt;/span&gt;" style="edgeLabel;html=1;align=center;verticalAlign=middle;resizable=0;points=[];" vertex="1" connectable="0" parent="b_nM1j6cAV6Jwso214tW-121">
          <mxGeometry x="-0.6" y="2" relative="1" as="geometry">
            <mxPoint x="-2" y="14" as="offset" />
          </mxGeometry>
        </mxCell>
        <mxCell id="b_nM1j6cAV6Jwso214tW-120" value="" style="ellipse;whiteSpace=wrap;html=1;aspect=fixed;" parent="1" vertex="1">
          <mxGeometry x="275" y="2240" width="30" height="30" as="geometry" />
        </mxCell>
        <mxCell id="b_nM1j6cAV6Jwso214tW-128" value="" style="edgeStyle=none;curved=1;rounded=0;orthogonalLoop=1;jettySize=auto;html=1;fontSize=12;startSize=8;endSize=8;exitX=0.5;exitY=1;exitDx=0;exitDy=0;" parent="1" source="b_nM1j6cAV6Jwso214tW-16" target="b_nM1j6cAV6Jwso214tW-127" edge="1">
          <mxGeometry relative="1" as="geometry">
            <mxPoint x="290" y="2440" as="sourcePoint" />
            <mxPoint x="290" y="2580" as="targetPoint" />
          </mxGeometry>
        </mxCell>
        <mxCell id="7eQ8FNlqFgEWoH0mjbUI-12" value="&lt;span style=&quot;font-size: 12px;&quot;&gt;เท็จ&lt;/span&gt;" style="edgeLabel;html=1;align=center;verticalAlign=middle;resizable=0;points=[];" vertex="1" connectable="0" parent="b_nM1j6cAV6Jwso214tW-128">
          <mxGeometry x="-0.4489" relative="1" as="geometry">
            <mxPoint as="offset" />
          </mxGeometry>
        </mxCell>
        <mxCell id="b_nM1j6cAV6Jwso214tW-127" value="" style="ellipse;whiteSpace=wrap;html=1;aspect=fixed;" parent="1" vertex="1">
          <mxGeometry x="275" y="2490" width="30" height="30" as="geometry" />
        </mxCell>
      </root>
    </mxGraphModel>
  </diagram>
</mxfile>
